<svg width="125" height="125" viewBox="0 0 125 125" fill="none" xmlns="http://www.w3.org/2000/svg">
<path fill-rule="evenodd" clip-rule="evenodd" d="M125 62.5C125 97.0178 97.0178 125 62.5 125C27.9822 125 0 97.0178 0 62.5C0 27.9822 27.9822 0 62.5 0C97.0178 0 125 27.9822 125 62.5ZM62 17.2672L80.7143 27.764V35.3077L99 44.5385V61.5685L106 65.4948V86.736L87.2857 97.2328L82.8617 94.7514L61.9649 106.791L41.6747 94.771L37.2857 97.2328L18.5714 86.736V65.4948L25 61.889V44.5385L43.2857 35.3077V27.764L62 17.2672ZM35 50.6923L43.2857 46.5096V49.0052L62 59.502L80.7143 49.0052V46.5096L89 50.6923V55.9595L87.2857 54.998L68.5714 65.4948V86.736L72.7116 89.0582L62.0351 95.2093L51.7528 89.1183L56 86.736V65.4948L37.2857 54.9979L35 56.28V50.6923ZM83.7922 68.4231L87.2857 66.4636L90.7792 68.4231L87.2857 70.3826L83.7922 68.4231ZM92.2857 79.0437L96 76.9604V80.8794L92.2857 82.9627V79.0437ZM82.2857 79.0437V82.9627L78.5714 80.8794V76.9604L82.2857 79.0437ZM46 80.8794L42.2857 82.9627V79.0437L46 76.9604V80.8794ZM40.7792 68.4231L37.2857 70.3826L33.7922 68.4231L37.2857 66.4636L40.7792 68.4231ZM28.5714 76.9604L32.2857 79.0437V82.9627L28.5714 80.8794V76.9604ZM57 45.2319L53.2857 43.1486V39.2296L57 41.3129V45.2319ZM62 32.6518L58.5065 30.6923L62 28.7328L65.4935 30.6923L62 32.6518ZM67 41.3129L70.7143 39.2296V43.1486L67 45.2319V41.3129Z" fill="#8FCE0B"/>
<path fill-rule="evenodd" clip-rule="evenodd" d="M62 21.2802L77.2143 29.8138V37.4615L95.5 46.6923V63.6183L102.5 67.5446V84.6862L87.2857 93.2198L82.8385 90.7254L61.9895 102.737L41.7224 90.7313L37.2857 93.2198L22.0714 84.6862V67.5446L28.5 63.9388V46.6923L46.7857 37.4615V29.8138L62 21.2802ZM46.7857 40.8221L31.5 48.5385V62.2561L37.2857 59.0109L52.5 67.5446V84.6862L44.7458 89.0355L62.0105 99.2628L79.7935 89.0175L72.0714 84.6862V67.5446L87.2857 59.0109L92.5 61.9356V48.5385L77.2143 40.8221V46.9554L62 55.4891L46.7857 46.9554V40.8221ZM49.7857 33.2535L60.5 39.2631V51.208L49.7857 45.1984V33.2535ZM63.5 51.208L74.2143 45.1984V33.2535L63.5 39.2631V51.208ZM62 36.6648L72.648 30.6923L62 24.7198L51.352 30.6923L62 36.6648ZM25.0714 70.9843L35.7857 76.9939V88.9388L25.0714 82.9292V70.9843ZM38.7857 88.9388L49.5 82.9292V70.9843L38.7857 76.9939V88.9388ZM37.2857 74.3955L47.9338 68.4231L37.2857 62.4506L26.6377 68.4231L37.2857 74.3955ZM75.0714 70.9843L85.7857 76.9939V88.9388L75.0714 82.9292V70.9843ZM88.7857 88.9388L99.5 82.9292V70.9843L88.7857 76.9939V88.9388ZM87.2857 74.3955L97.9338 68.4231L87.2857 62.4506L76.6377 68.4231L87.2857 74.3955Z" fill="#4B5A30" stroke="#4B5A30" stroke-width="1.5"/>
</svg>
