<svg width="208" height="167" viewBox="0 0 208 167" fill="none" xmlns="http://www.w3.org/2000/svg">
<mask id="path-1-outside-1_2_11" maskUnits="userSpaceOnUse" x="2" y="134.58" width="205" height="32" fill="black">
<rect fill="white" x="2" y="134.58" width="205" height="32"/>
<path d="M11.02 158C10.04 158 9.24 157.7 8.62 157.1C8.02 156.48 7.72 155.66 7.72 154.64V146.24H4V143.12H7.72V138.5H11.5V143.12H15.58V146.24H11.5V153.98C11.5 154.58 11.78 154.88 12.34 154.88H15.22V158H11.02Z"/>
<path d="M18.8816 158V137H28.0016C29.3216 137 30.4716 137.23 31.4516 137.69C32.4316 138.15 33.1916 138.8 33.7316 139.64C34.2716 140.48 34.5416 141.47 34.5416 142.61V142.97C34.5416 144.23 34.2416 145.25 33.6416 146.03C33.0416 146.81 32.3016 147.38 31.4216 147.74V148.28C32.2216 148.32 32.8416 148.6 33.2816 149.12C33.7216 149.62 33.9416 150.29 33.9416 151.13V158H29.9816V151.7C29.9816 151.22 29.8516 150.83 29.5916 150.53C29.3516 150.23 28.9416 150.08 28.3616 150.08H22.8416V158H18.8816ZM22.8416 146.48H27.5816C28.5216 146.48 29.2516 146.23 29.7716 145.73C30.3116 145.21 30.5816 144.53 30.5816 143.69V143.39C30.5816 142.55 30.3216 141.88 29.8016 141.38C29.2816 140.86 28.5416 140.6 27.5816 140.6H22.8416V146.48Z"/>
<path d="M37.8367 158V137H46.4767C47.7967 137 48.9567 137.27 49.9567 137.81C50.9767 138.33 51.7667 139.07 52.3267 140.03C52.9067 140.99 53.1967 142.13 53.1967 143.45V143.87C53.1967 145.17 52.8967 146.31 52.2967 147.29C51.7167 148.25 50.9167 149 49.8967 149.54C48.8967 150.06 47.7567 150.32 46.4767 150.32H41.7967V158H37.8367ZM41.7967 146.72H46.0867C47.0267 146.72 47.7867 146.46 48.3667 145.94C48.9467 145.42 49.2367 144.71 49.2367 143.81V143.51C49.2367 142.61 48.9467 141.9 48.3667 141.38C47.7867 140.86 47.0267 140.6 46.0867 140.6H41.7967V146.72Z"/>
<path d="M63.9222 158.42C61.3222 158.42 59.2622 157.7 57.7422 156.26C56.2222 154.8 55.4622 152.72 55.4622 150.02V144.98C55.4622 142.28 56.2222 140.21 57.7422 138.77C59.2622 137.31 61.3222 136.58 63.9222 136.58C66.5022 136.58 68.4922 137.29 69.8922 138.71C71.3122 140.11 72.0222 142.04 72.0222 144.5V144.68H68.1222V144.38C68.1222 143.14 67.7722 142.12 67.0722 141.32C66.3922 140.52 65.3422 140.12 63.9222 140.12C62.5222 140.12 61.4222 140.55 60.6222 141.41C59.8222 142.27 59.4222 143.44 59.4222 144.92V150.08C59.4222 151.54 59.8222 152.71 60.6222 153.59C61.4222 154.45 62.5222 154.88 63.9222 154.88C65.3422 154.88 66.3922 154.48 67.0722 153.68C67.7722 152.86 68.1222 151.84 68.1222 150.62V150.08H72.0222V150.5C72.0222 152.96 71.3122 154.9 69.8922 156.32C68.4922 157.72 66.5022 158.42 63.9222 158.42Z"/>
<path d="M75.3088 152.06V148.64H84.1888V152.06H75.3088Z"/>
<path d="M96.358 158.42C93.718 158.42 91.6181 157.7 90.0581 156.26C88.4981 154.8 87.718 152.72 87.718 150.02V144.98C87.718 142.28 88.4981 140.21 90.0581 138.77C91.6181 137.31 93.718 136.58 96.358 136.58C98.998 136.58 101.098 137.31 102.658 138.77C104.218 140.21 104.998 142.28 104.998 144.98V150.02C104.998 152.72 104.218 154.8 102.658 156.26C101.098 157.7 98.998 158.42 96.358 158.42ZM96.358 154.88C97.838 154.88 98.9881 154.45 99.8081 153.59C100.628 152.73 101.038 151.58 101.038 150.14V144.86C101.038 143.42 100.628 142.27 99.8081 141.41C98.9881 140.55 97.838 140.12 96.358 140.12C94.898 140.12 93.7481 140.55 92.9081 141.41C92.0881 142.27 91.678 143.42 91.678 144.86V150.14C91.678 151.58 92.0881 152.73 92.9081 153.59C93.7481 154.45 94.898 154.88 96.358 154.88Z"/>
<path d="M108.591 164V143.12H112.311V144.92H112.851C113.191 144.34 113.721 143.83 114.441 143.39C115.161 142.93 116.191 142.7 117.531 142.7C118.731 142.7 119.841 143 120.861 143.6C121.881 144.18 122.701 145.04 123.321 146.18C123.941 147.32 124.251 148.7 124.251 150.32V150.8C124.251 152.42 123.941 153.8 123.321 154.94C122.701 156.08 121.881 156.95 120.861 157.55C119.841 158.13 118.731 158.42 117.531 158.42C116.631 158.42 115.871 158.31 115.251 158.09C114.651 157.89 114.161 157.63 113.781 157.31C113.421 156.97 113.131 156.63 112.911 156.29H112.371V164H108.591ZM116.391 155.12C117.571 155.12 118.541 154.75 119.301 154.01C120.081 153.25 120.471 152.15 120.471 150.71V150.41C120.471 148.97 120.081 147.88 119.301 147.14C118.521 146.38 117.551 146 116.391 146C115.231 146 114.261 146.38 113.481 147.14C112.701 147.88 112.311 148.97 112.311 150.41V150.71C112.311 152.15 112.701 153.25 113.481 154.01C114.261 154.75 115.231 155.12 116.391 155.12Z"/>
<path d="M134.502 158.42C133.022 158.42 131.712 158.11 130.572 157.49C129.452 156.85 128.572 155.96 127.932 154.82C127.312 153.66 127.002 152.3 127.002 150.74V150.38C127.002 148.82 127.312 147.47 127.932 146.33C128.552 145.17 129.422 144.28 130.542 143.66C131.662 143.02 132.962 142.7 134.442 142.7C135.902 142.7 137.172 143.03 138.252 143.69C139.332 144.33 140.172 145.23 140.772 146.39C141.372 147.53 141.672 148.86 141.672 150.38V151.67H130.842C130.882 152.69 131.262 153.52 131.982 154.16C132.702 154.8 133.582 155.12 134.622 155.12C135.682 155.12 136.462 154.89 136.962 154.43C137.462 153.97 137.842 153.46 138.102 152.9L141.192 154.52C140.912 155.04 140.502 155.61 139.962 156.23C139.442 156.83 138.742 157.35 137.862 157.79C136.982 158.21 135.862 158.42 134.502 158.42ZM130.872 148.85H137.832C137.752 147.99 137.402 147.3 136.782 146.78C136.182 146.26 135.392 146 134.412 146C133.392 146 132.582 146.26 131.982 146.78C131.382 147.3 131.012 147.99 130.872 148.85Z"/>
<path d="M145.037 158V143.12H148.757V145.07H149.297C149.537 144.55 149.987 144.06 150.647 143.6C151.307 143.12 152.307 142.88 153.647 142.88C154.807 142.88 155.817 143.15 156.677 143.69C157.557 144.21 158.237 144.94 158.717 145.88C159.197 146.8 159.437 147.88 159.437 149.12V158H155.657V149.42C155.657 148.3 155.377 147.46 154.817 146.9C154.277 146.34 153.497 146.06 152.477 146.06C151.317 146.06 150.417 146.45 149.777 147.23C149.137 147.99 148.817 149.06 148.817 150.44V158H145.037Z"/>
<path d="M161.963 158L167.483 137H174.383L179.903 158H175.823L174.683 153.38H167.183L166.043 158H161.963ZM168.113 149.72H173.753L171.203 139.49H170.663L168.113 149.72Z"/>
<path d="M182.417 158V137H191.057C192.377 137 193.537 137.27 194.537 137.81C195.557 138.33 196.347 139.07 196.907 140.03C197.487 140.99 197.777 142.13 197.777 143.45V143.87C197.777 145.17 197.477 146.31 196.877 147.29C196.297 148.25 195.497 149 194.477 149.54C193.477 150.06 192.337 150.32 191.057 150.32H186.377V158H182.417ZM186.377 146.72H190.667C191.607 146.72 192.367 146.46 192.947 145.94C193.527 145.42 193.817 144.71 193.817 143.81V143.51C193.817 142.61 193.527 141.9 192.947 141.38C192.367 140.86 191.607 140.6 190.667 140.6H186.377V146.72Z"/>
<path d="M200.522 158V137H204.482V158H200.522Z"/>
</mask>
<path d="M11.02 158C10.04 158 9.24 157.7 8.62 157.1C8.02 156.48 7.72 155.66 7.72 154.64V146.24H4V143.12H7.72V138.5H11.5V143.12H15.58V146.24H11.5V153.98C11.5 154.58 11.78 154.88 12.34 154.88H15.22V158H11.02Z" fill="black"/>
<path d="M18.8816 158V137H28.0016C29.3216 137 30.4716 137.23 31.4516 137.69C32.4316 138.15 33.1916 138.8 33.7316 139.64C34.2716 140.48 34.5416 141.47 34.5416 142.61V142.97C34.5416 144.23 34.2416 145.25 33.6416 146.03C33.0416 146.81 32.3016 147.38 31.4216 147.74V148.28C32.2216 148.32 32.8416 148.6 33.2816 149.12C33.7216 149.62 33.9416 150.29 33.9416 151.13V158H29.9816V151.7C29.9816 151.22 29.8516 150.83 29.5916 150.53C29.3516 150.23 28.9416 150.08 28.3616 150.08H22.8416V158H18.8816ZM22.8416 146.48H27.5816C28.5216 146.48 29.2516 146.23 29.7716 145.73C30.3116 145.21 30.5816 144.53 30.5816 143.69V143.39C30.5816 142.55 30.3216 141.88 29.8016 141.38C29.2816 140.86 28.5416 140.6 27.5816 140.6H22.8416V146.48Z" fill="black"/>
<path d="M37.8367 158V137H46.4767C47.7967 137 48.9567 137.27 49.9567 137.81C50.9767 138.33 51.7667 139.07 52.3267 140.03C52.9067 140.99 53.1967 142.13 53.1967 143.45V143.87C53.1967 145.17 52.8967 146.31 52.2967 147.29C51.7167 148.25 50.9167 149 49.8967 149.54C48.8967 150.06 47.7567 150.32 46.4767 150.32H41.7967V158H37.8367ZM41.7967 146.72H46.0867C47.0267 146.72 47.7867 146.46 48.3667 145.94C48.9467 145.42 49.2367 144.71 49.2367 143.81V143.51C49.2367 142.61 48.9467 141.9 48.3667 141.38C47.7867 140.86 47.0267 140.6 46.0867 140.6H41.7967V146.72Z" fill="black"/>
<path d="M63.9222 158.42C61.3222 158.42 59.2622 157.7 57.7422 156.26C56.2222 154.8 55.4622 152.72 55.4622 150.02V144.98C55.4622 142.28 56.2222 140.21 57.7422 138.77C59.2622 137.31 61.3222 136.58 63.9222 136.58C66.5022 136.58 68.4922 137.29 69.8922 138.71C71.3122 140.11 72.0222 142.04 72.0222 144.5V144.68H68.1222V144.38C68.1222 143.14 67.7722 142.12 67.0722 141.32C66.3922 140.52 65.3422 140.12 63.9222 140.12C62.5222 140.12 61.4222 140.55 60.6222 141.41C59.8222 142.27 59.4222 143.44 59.4222 144.92V150.08C59.4222 151.54 59.8222 152.71 60.6222 153.59C61.4222 154.45 62.5222 154.88 63.9222 154.88C65.3422 154.88 66.3922 154.48 67.0722 153.68C67.7722 152.86 68.1222 151.84 68.1222 150.62V150.08H72.0222V150.5C72.0222 152.96 71.3122 154.9 69.8922 156.32C68.4922 157.72 66.5022 158.42 63.9222 158.42Z" fill="black"/>
<path d="M75.3088 152.06V148.64H84.1888V152.06H75.3088Z" fill="black"/>
<path d="M96.358 158.42C93.718 158.42 91.6181 157.7 90.0581 156.26C88.4981 154.8 87.718 152.72 87.718 150.02V144.98C87.718 142.28 88.4981 140.21 90.0581 138.77C91.6181 137.31 93.718 136.58 96.358 136.58C98.998 136.58 101.098 137.31 102.658 138.77C104.218 140.21 104.998 142.28 104.998 144.98V150.02C104.998 152.72 104.218 154.8 102.658 156.26C101.098 157.7 98.998 158.42 96.358 158.42ZM96.358 154.88C97.838 154.88 98.9881 154.45 99.8081 153.59C100.628 152.73 101.038 151.58 101.038 150.14V144.86C101.038 143.42 100.628 142.27 99.8081 141.41C98.9881 140.55 97.838 140.12 96.358 140.12C94.898 140.12 93.7481 140.55 92.9081 141.41C92.0881 142.27 91.678 143.42 91.678 144.86V150.14C91.678 151.58 92.0881 152.73 92.9081 153.59C93.7481 154.45 94.898 154.88 96.358 154.88Z" fill="black"/>
<path d="M108.591 164V143.12H112.311V144.92H112.851C113.191 144.34 113.721 143.83 114.441 143.39C115.161 142.93 116.191 142.7 117.531 142.7C118.731 142.7 119.841 143 120.861 143.6C121.881 144.18 122.701 145.04 123.321 146.18C123.941 147.32 124.251 148.7 124.251 150.32V150.8C124.251 152.42 123.941 153.8 123.321 154.94C122.701 156.08 121.881 156.95 120.861 157.55C119.841 158.13 118.731 158.42 117.531 158.42C116.631 158.42 115.871 158.31 115.251 158.09C114.651 157.89 114.161 157.63 113.781 157.31C113.421 156.97 113.131 156.63 112.911 156.29H112.371V164H108.591ZM116.391 155.12C117.571 155.12 118.541 154.75 119.301 154.01C120.081 153.25 120.471 152.15 120.471 150.71V150.41C120.471 148.97 120.081 147.88 119.301 147.14C118.521 146.38 117.551 146 116.391 146C115.231 146 114.261 146.38 113.481 147.14C112.701 147.88 112.311 148.97 112.311 150.41V150.71C112.311 152.15 112.701 153.25 113.481 154.01C114.261 154.75 115.231 155.12 116.391 155.12Z" fill="black"/>
<path d="M134.502 158.42C133.022 158.42 131.712 158.11 130.572 157.49C129.452 156.85 128.572 155.96 127.932 154.82C127.312 153.66 127.002 152.3 127.002 150.74V150.38C127.002 148.82 127.312 147.47 127.932 146.33C128.552 145.17 129.422 144.28 130.542 143.66C131.662 143.02 132.962 142.7 134.442 142.7C135.902 142.7 137.172 143.03 138.252 143.69C139.332 144.33 140.172 145.23 140.772 146.39C141.372 147.53 141.672 148.86 141.672 150.38V151.67H130.842C130.882 152.69 131.262 153.52 131.982 154.16C132.702 154.8 133.582 155.12 134.622 155.12C135.682 155.12 136.462 154.89 136.962 154.43C137.462 153.97 137.842 153.46 138.102 152.9L141.192 154.52C140.912 155.04 140.502 155.61 139.962 156.23C139.442 156.83 138.742 157.35 137.862 157.79C136.982 158.21 135.862 158.42 134.502 158.42ZM130.872 148.85H137.832C137.752 147.99 137.402 147.3 136.782 146.78C136.182 146.26 135.392 146 134.412 146C133.392 146 132.582 146.26 131.982 146.78C131.382 147.3 131.012 147.99 130.872 148.85Z" fill="black"/>
<path d="M145.037 158V143.12H148.757V145.07H149.297C149.537 144.55 149.987 144.06 150.647 143.6C151.307 143.12 152.307 142.88 153.647 142.88C154.807 142.88 155.817 143.15 156.677 143.69C157.557 144.21 158.237 144.94 158.717 145.88C159.197 146.8 159.437 147.88 159.437 149.12V158H155.657V149.42C155.657 148.3 155.377 147.46 154.817 146.9C154.277 146.34 153.497 146.06 152.477 146.06C151.317 146.06 150.417 146.45 149.777 147.23C149.137 147.99 148.817 149.06 148.817 150.44V158H145.037Z" fill="black"/>
<path d="M161.963 158L167.483 137H174.383L179.903 158H175.823L174.683 153.38H167.183L166.043 158H161.963ZM168.113 149.72H173.753L171.203 139.49H170.663L168.113 149.72Z" fill="black"/>
<path d="M182.417 158V137H191.057C192.377 137 193.537 137.27 194.537 137.81C195.557 138.33 196.347 139.07 196.907 140.03C197.487 140.99 197.777 142.13 197.777 143.45V143.87C197.777 145.17 197.477 146.31 196.877 147.29C196.297 148.25 195.497 149 194.477 149.54C193.477 150.06 192.337 150.32 191.057 150.32H186.377V158H182.417ZM186.377 146.72H190.667C191.607 146.72 192.367 146.46 192.947 145.94C193.527 145.42 193.817 144.71 193.817 143.81V143.51C193.817 142.61 193.527 141.9 192.947 141.38C192.367 140.86 191.607 140.6 190.667 140.6H186.377V146.72Z" fill="black"/>
<path d="M200.522 158V137H204.482V158H200.522Z" fill="black"/>
<path d="M11.02 158C10.04 158 9.24 157.7 8.62 157.1C8.02 156.48 7.72 155.66 7.72 154.64V146.24H4V143.12H7.72V138.5H11.5V143.12H15.58V146.24H11.5V153.98C11.5 154.58 11.78 154.88 12.34 154.88H15.22V158H11.02Z" stroke="white" stroke-width="4" mask="url(#path-1-outside-1_2_11)"/>
<path d="M18.8816 158V137H28.0016C29.3216 137 30.4716 137.23 31.4516 137.69C32.4316 138.15 33.1916 138.8 33.7316 139.64C34.2716 140.48 34.5416 141.47 34.5416 142.61V142.97C34.5416 144.23 34.2416 145.25 33.6416 146.03C33.0416 146.81 32.3016 147.38 31.4216 147.74V148.28C32.2216 148.32 32.8416 148.6 33.2816 149.12C33.7216 149.62 33.9416 150.29 33.9416 151.13V158H29.9816V151.7C29.9816 151.22 29.8516 150.83 29.5916 150.53C29.3516 150.23 28.9416 150.08 28.3616 150.08H22.8416V158H18.8816ZM22.8416 146.48H27.5816C28.5216 146.48 29.2516 146.23 29.7716 145.73C30.3116 145.21 30.5816 144.53 30.5816 143.69V143.39C30.5816 142.55 30.3216 141.88 29.8016 141.38C29.2816 140.86 28.5416 140.6 27.5816 140.6H22.8416V146.48Z" stroke="white" stroke-width="4" mask="url(#path-1-outside-1_2_11)"/>
<path d="M37.8367 158V137H46.4767C47.7967 137 48.9567 137.27 49.9567 137.81C50.9767 138.33 51.7667 139.07 52.3267 140.03C52.9067 140.99 53.1967 142.13 53.1967 143.45V143.87C53.1967 145.17 52.8967 146.31 52.2967 147.29C51.7167 148.25 50.9167 149 49.8967 149.54C48.8967 150.06 47.7567 150.32 46.4767 150.32H41.7967V158H37.8367ZM41.7967 146.72H46.0867C47.0267 146.72 47.7867 146.46 48.3667 145.94C48.9467 145.42 49.2367 144.71 49.2367 143.81V143.51C49.2367 142.61 48.9467 141.9 48.3667 141.38C47.7867 140.86 47.0267 140.6 46.0867 140.6H41.7967V146.72Z" stroke="white" stroke-width="4" mask="url(#path-1-outside-1_2_11)"/>
<path d="M63.9222 158.42C61.3222 158.42 59.2622 157.7 57.7422 156.26C56.2222 154.8 55.4622 152.72 55.4622 150.02V144.98C55.4622 142.28 56.2222 140.21 57.7422 138.77C59.2622 137.31 61.3222 136.58 63.9222 136.58C66.5022 136.58 68.4922 137.29 69.8922 138.71C71.3122 140.11 72.0222 142.04 72.0222 144.5V144.68H68.1222V144.38C68.1222 143.14 67.7722 142.12 67.0722 141.32C66.3922 140.52 65.3422 140.12 63.9222 140.12C62.5222 140.12 61.4222 140.55 60.6222 141.41C59.8222 142.27 59.4222 143.44 59.4222 144.92V150.08C59.4222 151.54 59.8222 152.71 60.6222 153.59C61.4222 154.45 62.5222 154.88 63.9222 154.88C65.3422 154.88 66.3922 154.48 67.0722 153.68C67.7722 152.86 68.1222 151.84 68.1222 150.62V150.08H72.0222V150.5C72.0222 152.96 71.3122 154.9 69.8922 156.32C68.4922 157.72 66.5022 158.42 63.9222 158.42Z" stroke="white" stroke-width="4" mask="url(#path-1-outside-1_2_11)"/>
<path d="M75.3088 152.06V148.64H84.1888V152.06H75.3088Z" stroke="white" stroke-width="4" mask="url(#path-1-outside-1_2_11)"/>
<path d="M96.358 158.42C93.718 158.42 91.6181 157.7 90.0581 156.26C88.4981 154.8 87.718 152.72 87.718 150.02V144.98C87.718 142.28 88.4981 140.21 90.0581 138.77C91.6181 137.31 93.718 136.58 96.358 136.58C98.998 136.58 101.098 137.31 102.658 138.77C104.218 140.21 104.998 142.28 104.998 144.98V150.02C104.998 152.72 104.218 154.8 102.658 156.26C101.098 157.7 98.998 158.42 96.358 158.42ZM96.358 154.88C97.838 154.88 98.9881 154.45 99.8081 153.59C100.628 152.73 101.038 151.58 101.038 150.14V144.86C101.038 143.42 100.628 142.27 99.8081 141.41C98.9881 140.55 97.838 140.12 96.358 140.12C94.898 140.12 93.7481 140.55 92.9081 141.41C92.0881 142.27 91.678 143.42 91.678 144.86V150.14C91.678 151.58 92.0881 152.73 92.9081 153.59C93.7481 154.45 94.898 154.88 96.358 154.88Z" stroke="white" stroke-width="4" mask="url(#path-1-outside-1_2_11)"/>
<path d="M108.591 164V143.12H112.311V144.92H112.851C113.191 144.34 113.721 143.83 114.441 143.39C115.161 142.93 116.191 142.7 117.531 142.7C118.731 142.7 119.841 143 120.861 143.6C121.881 144.18 122.701 145.04 123.321 146.18C123.941 147.32 124.251 148.7 124.251 150.32V150.8C124.251 152.42 123.941 153.8 123.321 154.94C122.701 156.08 121.881 156.95 120.861 157.55C119.841 158.13 118.731 158.42 117.531 158.42C116.631 158.42 115.871 158.31 115.251 158.09C114.651 157.89 114.161 157.63 113.781 157.31C113.421 156.97 113.131 156.63 112.911 156.29H112.371V164H108.591ZM116.391 155.12C117.571 155.12 118.541 154.75 119.301 154.01C120.081 153.25 120.471 152.15 120.471 150.71V150.41C120.471 148.97 120.081 147.88 119.301 147.14C118.521 146.38 117.551 146 116.391 146C115.231 146 114.261 146.38 113.481 147.14C112.701 147.88 112.311 148.97 112.311 150.41V150.71C112.311 152.15 112.701 153.25 113.481 154.01C114.261 154.75 115.231 155.12 116.391 155.12Z" stroke="white" stroke-width="4" mask="url(#path-1-outside-1_2_11)"/>
<path d="M134.502 158.42C133.022 158.42 131.712 158.11 130.572 157.49C129.452 156.85 128.572 155.96 127.932 154.82C127.312 153.66 127.002 152.3 127.002 150.74V150.38C127.002 148.82 127.312 147.47 127.932 146.33C128.552 145.17 129.422 144.28 130.542 143.66C131.662 143.02 132.962 142.7 134.442 142.7C135.902 142.7 137.172 143.03 138.252 143.69C139.332 144.33 140.172 145.23 140.772 146.39C141.372 147.53 141.672 148.86 141.672 150.38V151.67H130.842C130.882 152.69 131.262 153.52 131.982 154.16C132.702 154.8 133.582 155.12 134.622 155.12C135.682 155.12 136.462 154.89 136.962 154.43C137.462 153.97 137.842 153.46 138.102 152.9L141.192 154.52C140.912 155.04 140.502 155.61 139.962 156.23C139.442 156.83 138.742 157.35 137.862 157.79C136.982 158.21 135.862 158.42 134.502 158.42ZM130.872 148.85H137.832C137.752 147.99 137.402 147.3 136.782 146.78C136.182 146.26 135.392 146 134.412 146C133.392 146 132.582 146.26 131.982 146.78C131.382 147.3 131.012 147.99 130.872 148.85Z" stroke="white" stroke-width="4" mask="url(#path-1-outside-1_2_11)"/>
<path d="M145.037 158V143.12H148.757V145.07H149.297C149.537 144.55 149.987 144.06 150.647 143.6C151.307 143.12 152.307 142.88 153.647 142.88C154.807 142.88 155.817 143.15 156.677 143.69C157.557 144.21 158.237 144.94 158.717 145.88C159.197 146.8 159.437 147.88 159.437 149.12V158H155.657V149.42C155.657 148.3 155.377 147.46 154.817 146.9C154.277 146.34 153.497 146.06 152.477 146.06C151.317 146.06 150.417 146.45 149.777 147.23C149.137 147.99 148.817 149.06 148.817 150.44V158H145.037Z" stroke="white" stroke-width="4" mask="url(#path-1-outside-1_2_11)"/>
<path d="M161.963 158L167.483 137H174.383L179.903 158H175.823L174.683 153.38H167.183L166.043 158H161.963ZM168.113 149.72H173.753L171.203 139.49H170.663L168.113 149.72Z" stroke="white" stroke-width="4" mask="url(#path-1-outside-1_2_11)"/>
<path d="M182.417 158V137H191.057C192.377 137 193.537 137.27 194.537 137.81C195.557 138.33 196.347 139.07 196.907 140.03C197.487 140.99 197.777 142.13 197.777 143.45V143.87C197.777 145.17 197.477 146.31 196.877 147.29C196.297 148.25 195.497 149 194.477 149.54C193.477 150.06 192.337 150.32 191.057 150.32H186.377V158H182.417ZM186.377 146.72H190.667C191.607 146.72 192.367 146.46 192.947 145.94C193.527 145.42 193.817 144.71 193.817 143.81V143.51C193.817 142.61 193.527 141.9 192.947 141.38C192.367 140.86 191.607 140.6 190.667 140.6H186.377V146.72Z" stroke="white" stroke-width="4" mask="url(#path-1-outside-1_2_11)"/>
<path d="M200.522 158V137H204.482V158H200.522Z" stroke="white" stroke-width="4" mask="url(#path-1-outside-1_2_11)"/>
<path fill-rule="evenodd" clip-rule="evenodd" d="M166 62.5C166 97.0178 138.018 125 103.5 125C68.9822 125 41 97.0178 41 62.5C41 27.9822 68.9822 0 103.5 0C138.018 0 166 27.9822 166 62.5ZM103 17.2672L121.714 27.764V35.3077L140 44.5385V61.5685L147 65.4948V86.736L128.286 97.2328L123.862 94.7514L102.965 106.791L82.6747 94.771L78.2857 97.2328L59.5714 86.736V65.4948L66 61.889V44.5385L84.2857 35.3077V27.764L103 17.2672ZM76 50.6923L84.2857 46.5096V49.0052L103 59.502L121.714 49.0052V46.5096L130 50.6923V55.9595L128.286 54.998L109.571 65.4948V86.736L113.712 89.0582L103.035 95.2093L92.7528 89.1183L97 86.736V65.4948L78.2857 54.9979L76 56.28V50.6923ZM124.792 68.4231L128.286 66.4636L131.779 68.4231L128.286 70.3826L124.792 68.4231ZM133.286 79.0437L137 76.9604V80.8794L133.286 82.9627V79.0437ZM123.286 79.0437V82.9627L119.571 80.8794V76.9604L123.286 79.0437ZM87 80.8794L83.2857 82.9627V79.0437L87 76.9604V80.8794ZM81.7792 68.4231L78.2857 70.3826L74.7922 68.4231L78.2857 66.4636L81.7792 68.4231ZM69.5714 76.9604L73.2857 79.0437V82.9627L69.5714 80.8794V76.9604ZM98 45.2319L94.2857 43.1486V39.2296L98 41.3129V45.2319ZM103 32.6518L99.5065 30.6923L103 28.7328L106.493 30.6923L103 32.6518ZM108 41.3129L111.714 39.2296V43.1486L108 45.2319V41.3129Z" fill="#8FCE0B"/>
<path fill-rule="evenodd" clip-rule="evenodd" d="M103 21.2802L118.214 29.8138V37.4615L136.5 46.6923V63.6183L143.5 67.5446V84.6862L128.286 93.2198L123.838 90.7254L102.989 102.737L82.7224 90.7313L78.2857 93.2198L63.0714 84.6862V67.5446L69.5 63.9388V46.6923L87.7857 37.4615V29.8138L103 21.2802ZM87.7857 40.8221L72.5 48.5385V62.2561L78.2857 59.0109L93.5 67.5446V84.6862L85.7458 89.0355L103.011 99.2628L120.793 89.0175L113.071 84.6862V67.5446L128.286 59.0109L133.5 61.9356V48.5385L118.214 40.8221V46.9554L103 55.4891L87.7857 46.9554V40.8221ZM90.7857 33.2535L101.5 39.2631V51.208L90.7857 45.1984V33.2535ZM104.5 51.208L115.214 45.1984V33.2535L104.5 39.2631V51.208ZM103 36.6648L113.648 30.6923L103 24.7198L92.352 30.6923L103 36.6648ZM66.0714 70.9843L76.7857 76.9939V88.9388L66.0714 82.9292V70.9843ZM79.7857 88.9388L90.5 82.9292V70.9843L79.7857 76.9939V88.9388ZM78.2857 74.3955L88.9338 68.4231L78.2857 62.4506L67.6377 68.4231L78.2857 74.3955ZM116.071 70.9843L126.786 76.9939V88.9388L116.071 82.9292V70.9843ZM129.786 88.9388L140.5 82.9292V70.9843L129.786 76.9939V88.9388ZM128.286 74.3955L138.934 68.4231L128.286 62.4506L117.638 68.4231L128.286 74.3955Z" fill="#4B5A30" stroke="#4B5A30" stroke-width="1.5"/>
</svg>
